<svg width="16" height="21" viewBox="0 0 16 21" fill="none" xmlns="http://www.w3.org/2000/svg">
<rect width="16" height="21" fill="#E5E5E5"/>
<g id="Dashboard">
<g clip-path="url(#clip0_0_1)">
<rect x="-44" y="-40" width="1440" height="1024" rx="16" fill="#EDEDED"/>
<g id="Navbar">
<rect x="-28" y="-24" width="72" height="992" rx="8" fill="white"/>
<g id="Nav-Links/Top">
<g id="Logo">
<rect x="-8" y="-8" width="32" height="36.7092" rx="4" fill="white"/>
<g id="Group 1">
<path id="Union" fill-rule="evenodd" clip-rule="evenodd" d="M13.8793 0.981992H6.39921L5.49446 5.6847H4.49446L5.58679 0.00699238H6.18755L6.1889 0H15.0544L15.053 0.00699238H15.0669L13.9746 5.6847H12.9746L13.8793 0.981992Z" fill="#105E46"/>
<rect id="Rectangle 3" width="12.3346" height="14.8015" transform="matrix(1 0 -0.188924 0.981992 3.66547 6.17422)" fill="#12805D"/>
<rect id="Rectangle 2" width="12.3346" height="14.8015" transform="matrix(1 0 -0.188924 0.981992 2.79633 5.40341)" fill="#02D693"/>
</g>
</g>
</g>
</g>
</g>
</g>
<defs>
<clipPath id="clip0_0_1">
<rect x="-44" y="-40" width="1440" height="1024" rx="16" fill="white"/>
</clipPath>
</defs>
</svg>
